HIERARCHY
ROOT pelvis
{
  OFFSET 0 100 0
  CHANNELS 6 Xposition Yposition Zposition Zrotation Xrotation Yrotation
  JOINT pelvis_right_femur
  {
    OFFSET -10.78128 -3.44521 -0.5502486
    CHANNELS 3 Zrotation Xrotation Yrotation
    JOINT right_femur_tibia
    {
      OFFSET -0.8047443 -44.0398 -0.1307829
      CHANNELS 3 Zrotation Xrotation Yrotation
      JOINT right_tibia_foot
      {
        OFFSET 3.006224 -47.83518 -5
        CHANNELS 3 Zrotation Xrotation Yrotation
        End Site
        {
          OFFSET 0 -5 15
        }
      }
    }
  }
  JOINT pelvis_left_femur
  {
    OFFSET 10.78128 -3.44521 -0.5502486
    CHANNELS 3 Zrotation Xrotation Yrotation
    JOINT left_femur_tibia
    {
      OFFSET 0.8047443 -44.0398 -0.1307829
      CHANNELS 3 Zrotation Xrotation Yrotation
      JOINT left_tibia_foot
      {
        OFFSET -4.370144 -48.10324 -4.275266
        CHANNELS 3 Zrotation Xrotation Yrotation
        End Site
        {
          OFFSET 0 -5 15
        }
      }
    }
  }
  JOINT pelvis_spine1
  {
    OFFSET 0 6.468898 -3.129235
    CHANNELS 3 Zrotation Xrotation Yrotation
    JOINT spine1
    {
      OFFSET 0 23.15396 4.99043
      CHANNELS 3 Zrotation Xrotation Yrotation
      JOINT spine2
      {
        OFFSET 0 20.79997 -5.064912
        CHANNELS 3 Zrotation Xrotation Yrotation
        JOINT neck
        {
          OFFSET 0 14.38658 9.616178
          CHANNELS 3 Zrotation Xrotation Yrotation
          End Site
          {
            OFFSET 0 20 0
          }
        }
      }
      JOINT right_manubrium
      {
        OFFSET -5.722621 16.35077 3.967754
        CHANNELS 3 Zrotation Xrotation Yrotation
        JOINT right_clavicle
        {
          OFFSET -13.16364 1.694482 -4.693211
          CHANNELS 3 Zrotation Xrotation Yrotation
          JOINT right_humerus
          {
            OFFSET -28.5034 -0.3100689 -2.792744
            CHANNELS 3 Zrotation Xrotation Yrotation
            JOINT right_radius
            {
              OFFSET -25.15693 0.02248979 -1.271978
              CHANNELS 3 Zrotation Xrotation Yrotation
              End Site
              {
                OFFSET -15 0 0
              }
            }
          }
        }
      }
      JOINT left_manubrium
      {
        OFFSET 5.722621 16.35077 3.967754
        CHANNELS 3 Zrotation Xrotation Yrotation
        JOINT left_clavicle
        {
          OFFSET 13.16364 1.694482 -4.693211
          CHANNELS 3 Zrotation Xrotation Yrotation
          JOINT left_humerus
          {
            OFFSET 29.39168 -1.063119 -2.237045
            CHANNELS 3 Zrotation Xrotation Yrotation
            JOINT left_radius
            {
              OFFSET 24.59957 -0.9528479 0.9047498
              CHANNELS 3 Zrotation Xrotation Yrotation
              End Site
              {
                OFFSET 15 -0 -0
              }
            }
          }
        }
      }
    }
  }
}
MOTION
Frames: 13
Frame Time: 0.0416666666667
0 103.5113 0 2.709196 -2.247581 0.3572925 0.5952586 -8.369221 11.21341 -0 33.1765 -0 -5.528704 -19.07086 -3.584166 -8.650976 10.6236 -22.32854 -0 3.933767 -0 7.857563 -16.59732 28.53531 -3.815618 -5.55761 6.956349 1.271584 11.23575 -7.61471 1.907177 23.7782 3.407012 0.6387752 -24.69763 8.713024 5.823284 -21.64496 9.727751 87.28042 35.8398 -20.93756 -0 0 15.1936 -5.048432 7.928886 1.42746 5.79352 -21.15246 -2.841948 -95.17928 26.82535 25.05444 0 0 -16.20371 12.90403 21.34381 2.739236
0.1949441 103.5731 1.403535 1.874516 -1.818189 0.5683196 2.16374 -12.0991 11.27039 -0 36.51833 -0 -5.882845 -18.09411 -4.40554 -8.003499 10.95703 -21.86211 -0 4.197002 -0 7.502836 -17.49137 27.9653 -3.408489 -4.92065 6.473161 1.483994 11.07833 -7.695175 1.904889 23.53194 3.6762 0.8426409 -24.92256 8.847683 5.950134 -21.37665 9.788537 87.06018 35.61186 -20.84396 -0 0 15.27713 -5.340126 8.00791 1.617055 5.740921 -21.26344 -2.838645 -94.96956 26.79005 24.71209 0 0 -15.97384 12.58583 20.65365 3.076132
0.4370848 103.6412 2.977316 1.107047 -1.304538 0.5694766 3.60855 -16.20081 11.16059 -0 37.25484 -0 -6.108444 -16.69282 -4.538027 -7.221876 11.30871 -21.32675 -0 4.415262 -0 7.01054 -18.41403 27.19637 -3.055947 -4.325204 6.073863 1.912284 10.89514 -7.791653 1.888524 23.26 4.000881 1.077541 -25.18755 9.014813 5.975716 -21.10948 9.868441 86.72504 35.38111 -20.75458 -0 0 15.3379 -5.65837 8.089545 1.822311 5.954344 -21.05608 -2.944035 -95.11873 26.73256 24.57116 0 0 -15.89825 12.20644 19.95879 3.522771
0.690733 103.5031 4.914202 0.2844226 -0.4085452 0.2600372 4.907248 -20.57748 10.91787 -0 35.1977 -0 -6.2114 -14.76444 -4.087891 -6.533902 11.4453 -20.62311 -0 4.68073 -0 6.488471 -19.43137 26.35348 -2.981139 -3.380046 5.614723 2.392699 10.75421 -8.005157 2.062244 22.38135 4.223166 1.416455 -25.81137 9.187868 6.012525 -20.926 9.946613 86.33142 35.12845 -20.5831 -0 0 15.46339 -6.006869 8.167059 2.064801 6.281421 -20.88357 -3.018576 -95.46019 26.7062 24.42728 0 0 -16.11582 11.76411 19.27898 3.844025
0.9304185 103.2395 7.054791 -0.3497419 0.5036709 -0.04689776 6.049143 -24.67574 10.30929 -0 31.46317 -0 -6.296197 -11.95143 -3.441861 -6.10714 11.632 -19.70677 -0 5.133804 -0 5.965198 -20.56059 25.37108 -2.847369 -2.787532 5.513135 2.862506 10.58159 -7.850209 2.412285 21.62292 4.361053 1.85055 -26.26579 9.409636 5.899893 -20.43008 10.05192 86.08624 34.84286 -20.64065 -0 0 15.45143 -6.354227 8.250201 2.291955 6.744975 -20.92576 -2.943907 -95.63601 26.81272 24.01525 0 0 -16.55489 11.21972 18.60665 4.091233
1.23106 102.6725 9.471646 -0.7834295 1.563473 -0.2917629 6.826786 -28.45892 9.454323 -0 25.89839 -0 -6.351882 -8.758111 -2.616873 -5.940851 11.80418 -18.62701 -0 5.649583 -0 5.433891 -21.79577 24.17456 -2.777568 -2.22152 5.547541 3.114354 10.42163 -7.521399 2.806438 20.84917 4.417088 2.300634 -26.57424 9.541324 5.692183 -19.773 10.25715 85.98157 34.5476 -20.77939 -0 0 15.40956 -6.688484 8.343312 2.538841 7.191559 -21.10678 -2.842659 -95.76428 26.91757 23.52516 0 0 -16.95712 10.66221 17.92643 4.330766
1.552735 101.987 12.52964 -1.064481 2.601596 -0.5237292 7.390534 -31.61009 8.559476 -0 19.82467 -0 -6.532732 -5.817834 -1.759324 -6.034593 12.30377 -17.37883 -0 6.778576 -0 4.758514 -22.90492 22.76682 -2.702512 -2.013894 5.317148 3.208732 10.41594 -7.434689 3.042142 20.29315 4.49815 2.670412 -26.63701 9.541 5.529804 -19.20197 10.24665 86.10942 34.29153 -21.00566 -0 0 15.18165 -6.95155 8.480345 2.753488 7.560324 -21.08662 -2.657774 -95.80332 26.98352 23.31823 0 0 -17.00353 10.05376 17.20915 4.645375
1.804963 101.1054 15.9455 -1.308419 3.398693 -0.33344 7.935574 -33.95717 7.804565 -0 14.49857 -0 -6.889721 -3.815791 -1.045582 -5.927084 12.86404 -16.15871 -0 8.368163 -0 3.871933 -23.87732 20.93427 -2.407277 -1.952693 5.168846 3.099442 10.38829 -7.180384 3.052874 20.12608 4.656764 2.913651 -26.37161 9.446485 5.438329 -18.6207 10.07699 86.42878 34.05221 -21.38366 -0 0 14.75817 -7.169338 8.65381 2.948127 7.813448 -21.52112 -2.119756 -95.56499 27.05108 22.95357 0 0 -16.88633 9.422475 16.48347 4.979438
2.039436 100.17 20.00702 -1.887992 4.183506 0.4390644 8.80527 -35.36291 7.51466 -0 11.21775 -0 -7.460582 -2.747969 -0.5563367 -5.535236 13.39096 -14.88392 -0 10.8225 -0 2.687184 -24.33543 18.7411 -1.876261 -1.922578 4.626949 3.141553 10.34575 -7.373389 3.002954 19.8436 4.831095 3.110481 -26.19819 9.328118 5.442819 -18.07005 9.894384 86.78019 33.86421 -21.85269 -0 0 14.10325 -7.356091 8.875437 3.112352 7.790352 -21.65472 -1.90861 -95.26262 27.03095 22.73523 0 0 -16.55848 8.79556 15.7307 5.318483
2.259601 99.53176 24.5941 -2.503548 4.990376 1.823124 9.260189 -35.28294 7.295224 -0 10.74683 -0 -8.28778 -2.188545 -0.4598098 -4.565162 13.70614 -13.56912 -0 14.24819 -0 1.004473 -23.67909 15.9354 -1.107829 -2.083128 3.854235 3.225563 10.14613 -7.862704 2.784787 19.53193 5.085656 3.214778 -26.15964 9.184497 5.585606 -17.58843 9.802225 87.18441 33.72294 -22.43595 -0 0 13.19179 -7.539791 9.143173 3.231251 7.442235 -21.73353 -1.949383 -94.8532 26.94561 22.52799 0 0 -16.10539 8.160576 14.96803 5.643568
2.489286 99.34441 29.88538 -3.234916 5.607305 3.516567 9.556859 -33.27739 7.33354 -0 12.55129 -0 -9.330417 -1.609884 -0.4965185 -3.357162 13.22267 -12.51825 -0 19.51915 -0 -1.061817 -21.22989 12.7628 -0.1345419 -2.474667 3.21069 3.259325 10.12608 -8.353063 2.600171 19.26099 5.232123 3.302168 -26.05193 8.92892 5.693281 -16.9326 9.714233 87.74759 33.58063 -23.17607 -0 0 12.14399 -7.725338 9.455635 3.368448 6.804334 -21.40262 -2.023894 -94.73117 26.73574 22.70431 0 0 -15.37405 7.455502 14.17684 5.992593
2.876663 99.7033 35.71551 -3.66743 5.449858 4.801535 9.919956 -30.77164 7.63616 -0 13.88371 -0 -10.23015 -1.595431 -0.5176297 -2.480476 12.02189 -11.66334 -0 27.32163 -0 -3.116131 -16.72546 9.518747 0.9085595 -2.67499 2.958924 3.150105 10.16192 -8.531179 2.206131 19.23437 5.362645 3.218306 -25.66643 8.503583 5.783799 -16.26119 9.879736 88.30509 33.47676 -23.76532 -0 0 11.12672 -7.914156 9.811534 3.523541 6.177213 -21.39689 -2.114018 -94.418 26.46969 22.46531 0 0 -15.07274 6.833421 13.46094 6.219623
3.28891 100.5911 41.88158 -3.783481 4.659631 4.754136 9.981286 -26.78277 7.640264 -0 14.81565 -0 -10.90762 -2.539636 -0.5943562 -2.228009 9.512503 -11.13526 -0 37.45649 -0 -4.509235 -10.98107 6.685093 1.692089 -2.638794 3.474372 2.981141 10.46268 -8.053964 1.838835 19.52227 5.419537 3.143373 -25.11117 8.009472 5.904734 -15.72396 10.35114 88.64153 33.42613 -23.90286 -0 0 10.34754 -8.221359 10.19625 3.801111 5.682042 -21.37397 -2.109346 -94.0491 26.16751 22.20401 0 0 -14.90193 6.283227 12.84718 6.537419
